<?xml version="1.0" encoding="utf-8" ?>
<svg baseProfile="full" height="100%" version="1.1" width="100%" xmlns="http://www.w3.org/2000/svg" xmlns:ev="http://www.w3.org/2001/xml-events" xmlns:xlink="http://www.w3.org/1999/xlink"><defs /><line stroke="rgb(10%,10%,16%)" x1="0" x2="400" y1="0" y2="400" /><line stroke="rgb(10%,10%,16%)" x1="400" x2="400" y1="400" y2="0" /><line stroke="rgb(10%,10%,16%)" x1="400" x2="0" y1="0" y2="0" /><line stroke="rgb(10%,10%,16%)" x1="400" x2="0" y1="400" y2="0" /><line stroke="rgb(10%,10%,16%)" x1="0" x2="-300.1963977186152" y1="0" y2="-300.1963977186152" /><line stroke="rgb(10%,10%,16%)" x1="-300.1963977186152" x2="400" y1="-300.1963977186152" y2="400" /><line stroke="rgb(10%,10%,16%)" x1="0" x2="400" y1="0" y2="400" /><line stroke="rgb(10%,10%,16%)" x1="400" x2="1040.8908416269678" y1="400" y2="1040.8908416269678" /><line stroke="rgb(10%,10%,16%)" x1="1040.8908416269678" x2="0" y1="1040.8908416269678" y2="0" /><line stroke="rgb(10%,10%,16%)" x1="400" x2="0" y1="400" y2="0" /><line stroke="rgb(10%,10%,16%)" x1="0" x2="0.0" y1="0" y2="0.0" /><line stroke="rgb(10%,10%,16%)" x1="0.0" x2="400" y1="0.0" y2="400" /><line stroke="rgb(10%,10%,16%)" x1="0" x2="400" y1="0" y2="400" /><line stroke="rgb(10%,10%,16%)" x1="400" x2="400.0" y1="400" y2="400.0" /><line stroke="rgb(10%,10%,16%)" x1="400.0" x2="0" y1="400.0" y2="0" /><line stroke="rgb(10%,10%,16%)" x1="400" x2="0" y1="400" y2="0" /><line stroke="rgb(10%,10%,16%)" x1="0" x2="-295.69844146910486" y1="0" y2="-295.69844146910486" /><line stroke="rgb(10%,10%,16%)" x1="-295.69844146910486" x2="400" y1="-295.69844146910486" y2="400" /><line stroke="rgb(10%,10%,16%)" x1="400" x2="400.0" y1="400" y2="400.0" /><line stroke="rgb(10%,10%,16%)" x1="400.0" x2="-295.69844146910486" y1="400.0" y2="-295.69844146910486" /><line stroke="rgb(10%,10%,16%)" x1="-295.69844146910486" x2="400" y1="-295.69844146910486" y2="400" /><line stroke="rgb(10%,10%,16%)" x1="0" x2="0.0" y1="0" y2="0.0" /><line stroke="rgb(10%,10%,16%)" x1="0.0" x2="400.0" y1="0.0" y2="400.0" /><line stroke="rgb(10%,10%,16%)" x1="400.0" x2="0" y1="400.0" y2="0" /><line stroke="rgb(10%,10%,16%)" x1="0" x2="0.0" y1="0" y2="0.0" /><line stroke="rgb(10%,10%,16%)" x1="0.0" x2="0.0" y1="0.0" y2="0.0" /><line stroke="rgb(10%,10%,16%)" x1="0.0" x2="0" y1="0.0" y2="0" /><line stroke="rgb(10%,10%,16%)" x1="0" x2="400.0" y1="0" y2="400.0" /><line stroke="rgb(10%,10%,16%)" x1="400.0" x2="0.0" y1="400.0" y2="0.0" /><line stroke="rgb(10%,10%,16%)" x1="0.0" x2="0" y1="0.0" y2="0" /><line stroke="rgb(10%,10%,16%)" x1="400" x2="1040.8908416269678" y1="400" y2="1040.8908416269678" /><line stroke="rgb(10%,10%,16%)" x1="1040.8908416269678" x2="0.0" y1="1040.8908416269678" y2="0.0" /><line stroke="rgb(10%,10%,16%)" x1="0.0" x2="400" y1="0.0" y2="400" /><line stroke="rgb(10%,10%,16%)" x1="400" x2="1040.8908416269678" y1="400" y2="1040.8908416269678" /><line stroke="rgb(10%,10%,16%)" x1="1040.8908416269678" x2="1949.104490095814" y1="1040.8908416269678" y2="1949.104490095814" /><line stroke="rgb(10%,10%,16%)" x1="1949.104490095814" x2="400" y1="1949.104490095814" y2="400" /><line stroke="rgb(10%,10%,16%)" x1="1040.8908416269678" x2="400" y1="1040.8908416269678" y2="400" /><line stroke="rgb(10%,10%,16%)" x1="400" x2="-1149.104490095814" y1="400" y2="-1149.104490095814" /><line stroke="rgb(10%,10%,16%)" x1="-1149.104490095814" x2="1040.8908416269678" y1="-1149.104490095814" y2="1040.8908416269678" /><line stroke="rgb(10%,10%,16%)" x1="1040.8908416269678" x2="1949.104490095814" y1="1040.8908416269678" y2="1949.104490095814" /><line stroke="rgb(10%,10%,16%)" x1="1949.104490095814" x2="-1149.104490095814" y1="1949.104490095814" y2="-1149.104490095814" /><line stroke="rgb(10%,10%,16%)" x1="-1149.104490095814" x2="1040.8908416269678" y1="-1149.104490095814" y2="1040.8908416269678" /><line stroke="rgb(10%,10%,16%)" x1="400" x2="0.0" y1="400" y2="0.0" /><line stroke="rgb(10%,10%,16%)" x1="0.0" x2="1949.104490095814" y1="0.0" y2="1949.104490095814" /><line stroke="rgb(10%,10%,16%)" x1="1949.104490095814" x2="400" y1="1949.104490095814" y2="400" /><line stroke="rgb(10%,10%,16%)" x1="400" x2="0.0" y1="400" y2="0.0" /><line stroke="rgb(10%,10%,16%)" x1="0.0" x2="-1468.7730031978251" y1="0.0" y2="-1468.7730031978251" /><line stroke="rgb(10%,10%,16%)" x1="-1468.7730031978251" x2="400" y1="-1468.7730031978251" y2="400" /><line stroke="rgb(10%,10%,16%)" x1="400" x2="1949.104490095814" y1="400" y2="1949.104490095814" /><line stroke="rgb(10%,10%,16%)" x1="1949.104490095814" x2="-1468.7730031978251" y1="1949.104490095814" y2="-1468.7730031978251" /><line stroke="rgb(10%,10%,16%)" x1="-1468.7730031978251" x2="400" y1="-1468.7730031978251" y2="400" /><line stroke="rgb(10%,10%,16%)" x1="400" x2="400" y1="400" y2="400" /><line stroke="rgb(10%,10%,16%)" x1="400" x2="-300.1963977186152" y1="400" y2="-300.1963977186152" /><line stroke="rgb(10%,10%,16%)" x1="-300.1963977186152" x2="400" y1="-300.1963977186152" y2="400" /><line stroke="rgb(10%,10%,16%)" x1="400" x2="400" y1="400" y2="400" /><line stroke="rgb(10%,10%,16%)" x1="400" x2="1100.1963977186151" y1="400" y2="1100.1963977186151" /><line stroke="rgb(10%,10%,16%)" x1="1100.1963977186151" x2="400" y1="1100.1963977186151" y2="400" /><line stroke="rgb(10%,10%,16%)" x1="400" x2="400" y1="400" y2="400" /><line stroke="rgb(10%,10%,16%)" x1="400" x2="400.0" y1="400" y2="400.0" /><line stroke="rgb(10%,10%,16%)" x1="400.0" x2="400" y1="400.0" y2="400" /><line stroke="rgb(10%,10%,16%)" x1="400" x2="400" y1="400" y2="400" /><line stroke="rgb(10%,10%,16%)" x1="400" x2="400.0" y1="400" y2="400.0" /><line stroke="rgb(10%,10%,16%)" x1="400.0" x2="400" y1="400.0" y2="400" /><line stroke="rgb(10%,10%,16%)" x1="400" x2="400" y1="400" y2="400" /><line stroke="rgb(10%,10%,16%)" x1="400" x2="400.0" y1="400" y2="400.0" /><line stroke="rgb(10%,10%,16%)" x1="400.0" x2="400" y1="400.0" y2="400" /><line stroke="rgb(10%,10%,16%)" x1="400" x2="400.0" y1="400" y2="400.0" /><line stroke="rgb(10%,10%,16%)" x1="400.0" x2="400.0" y1="400.0" y2="400.0" /><line stroke="rgb(10%,10%,16%)" x1="400.0" x2="400" y1="400.0" y2="400" /><line stroke="rgb(10%,10%,16%)" x1="400" x2="400.0" y1="400" y2="400.0" /><line stroke="rgb(10%,10%,16%)" x1="400.0" x2="400.0" y1="400.0" y2="400.0" /><line stroke="rgb(10%,10%,16%)" x1="400.0" x2="400" y1="400.0" y2="400" /><line stroke="rgb(10%,10%,16%)" x1="400" x2="400.0" y1="400" y2="400.0" /><line stroke="rgb(10%,10%,16%)" x1="400.0" x2="400.0" y1="400.0" y2="400.0" /><line stroke="rgb(10%,10%,16%)" x1="400.0" x2="400" y1="400.0" y2="400" /><line stroke="rgb(10%,10%,16%)" x1="400" x2="400.0" y1="400" y2="400.0" /><line stroke="rgb(10%,10%,16%)" x1="400.0" x2="400.0" y1="400.0" y2="400.0" /><line stroke="rgb(10%,10%,16%)" x1="400.0" x2="400" y1="400.0" y2="400" /><line stroke="rgb(10%,10%,16%)" x1="400" x2="1100.1963977186151" y1="400" y2="1100.1963977186151" /><line stroke="rgb(10%,10%,16%)" x1="1100.1963977186151" x2="400.0" y1="1100.1963977186151" y2="400.0" /><line stroke="rgb(10%,10%,16%)" x1="400.0" x2="400" y1="400.0" y2="400" /><line stroke="rgb(10%,10%,16%)" x1="400" x2="1100.1963977186151" y1="400" y2="1100.1963977186151" /><line stroke="rgb(10%,10%,16%)" x1="1100.1963977186151" x2="1100.1963977186151" y1="1100.1963977186151" y2="1100.1963977186151" /><line stroke="rgb(10%,10%,16%)" x1="1100.1963977186151" x2="400" y1="1100.1963977186151" y2="400" /><line stroke="rgb(10%,10%,16%)" x1="1100.1963977186151" x2="400" y1="1100.1963977186151" y2="400" /><line stroke="rgb(10%,10%,16%)" x1="400" x2="400.0" y1="400" y2="400.0" /><line stroke="rgb(10%,10%,16%)" x1="400.0" x2="1100.1963977186151" y1="400.0" y2="1100.1963977186151" /><line stroke="rgb(10%,10%,16%)" x1="1100.1963977186151" x2="1100.1963977186151" y1="1100.1963977186151" y2="1100.1963977186151" /><line stroke="rgb(10%,10%,16%)" x1="1100.1963977186151" x2="400.0" y1="1100.1963977186151" y2="400.0" /><line stroke="rgb(10%,10%,16%)" x1="400.0" x2="1100.1963977186151" y1="400.0" y2="1100.1963977186151" /><line stroke="rgb(10%,10%,16%)" x1="400" x2="400.0" y1="400" y2="400.0" /><line stroke="rgb(10%,10%,16%)" x1="400.0" x2="1100.1963977186151" y1="400.0" y2="1100.1963977186151" /><line stroke="rgb(10%,10%,16%)" x1="1100.1963977186151" x2="400" y1="1100.1963977186151" y2="400" /><line stroke="rgb(10%,10%,16%)" x1="400" x2="1100.1963977186151" y1="400" y2="1100.1963977186151" /><line stroke="rgb(10%,10%,16%)" x1="1100.1963977186151" x2="-300.1963977186151" y1="1100.1963977186151" y2="-300.1963977186151" /><line stroke="rgb(10%,10%,16%)" x1="-300.1963977186151" x2="400" y1="-300.1963977186151" y2="400" /><line stroke="rgb(10%,10%,16%)" x1="400" x2="-300.1963977186152" y1="400" y2="-300.1963977186152" /><line stroke="rgb(10%,10%,16%)" x1="-300.1963977186152" x2="1100.1963977186151" y1="-300.1963977186152" y2="1100.1963977186151" /><line stroke="rgb(10%,10%,16%)" x1="1100.1963977186151" x2="400" y1="1100.1963977186151" y2="400" /><line stroke="rgb(10%,10%,16%)" x1="400" x2="-300.1963977186152" y1="400" y2="-300.1963977186152" /><line stroke="rgb(10%,10%,16%)" x1="-300.1963977186152" x2="-1344.3991029263486" y1="-300.1963977186152" y2="-1344.3991029263486" /><line stroke="rgb(10%,10%,16%)" x1="-1344.3991029263486" x2="400" y1="-1344.3991029263486" y2="400" /><line stroke="rgb(10%,10%,16%)" x1="-300.1963977186152" x2="-1344.3991029263486" y1="-300.1963977186152" y2="-1344.3991029263486" /><line stroke="rgb(10%,10%,16%)" x1="-1344.3991029263486" x2="400.0" y1="-1344.3991029263486" y2="400.0" /><line stroke="rgb(10%,10%,16%)" x1="400.0" x2="-300.1963977186152" y1="400.0" y2="-300.1963977186152" /><line stroke="rgb(10%,10%,16%)" x1="-300.1963977186152" x2="-1344.3991029263486" y1="-300.1963977186152" y2="-1344.3991029263486" /><line stroke="rgb(10%,10%,16%)" x1="-1344.3991029263486" x2="-1344.3991029263486" y1="-1344.3991029263486" y2="-1344.3991029263486" /><line stroke="rgb(10%,10%,16%)" x1="-1344.3991029263486" x2="-300.1963977186152" y1="-1344.3991029263486" y2="-300.1963977186152" /><line stroke="rgb(10%,10%,16%)" x1="-300.1963977186152" x2="400.0" y1="-300.1963977186152" y2="400.0" /><line stroke="rgb(10%,10%,16%)" x1="400.0" x2="-1344.3991029263486" y1="400.0" y2="-1344.3991029263486" /><line stroke="rgb(10%,10%,16%)" x1="-1344.3991029263486" x2="-300.1963977186152" y1="-1344.3991029263486" y2="-300.1963977186152" /><line stroke="rgb(10%,10%,16%)" x1="400" x2="1100.1963977186151" y1="400" y2="1100.1963977186151" /><line stroke="rgb(10%,10%,16%)" x1="1100.1963977186151" x2="-1344.3991029263486" y1="1100.1963977186151" y2="-1344.3991029263486" /><line stroke="rgb(10%,10%,16%)" x1="-1344.3991029263486" x2="400" y1="-1344.3991029263486" y2="400" /><line stroke="rgb(10%,10%,16%)" x1="400" x2="-1344.3991029263486" y1="400" y2="-1344.3991029263486" /><line stroke="rgb(10%,10%,16%)" x1="-1344.3991029263486" x2="3182.616139746323" y1="-1344.3991029263486" y2="3182.616139746323" /><line stroke="rgb(10%,10%,16%)" x1="3182.616139746323" x2="400" y1="3182.616139746323" y2="400" /><line stroke="rgb(10%,10%,16%)" x1="400" x2="-1344.3991029263486" y1="400" y2="-1344.3991029263486" /><line stroke="rgb(10%,10%,16%)" x1="-1344.3991029263486" x2="-1344.3991029263486" y1="-1344.3991029263486" y2="-1344.3991029263486" /><line stroke="rgb(10%,10%,16%)" x1="-1344.3991029263486" x2="400" y1="-1344.3991029263486" y2="400" /><line stroke="rgb(10%,10%,16%)" x1="400" x2="3182.616139746323" y1="400" y2="3182.616139746323" /><line stroke="rgb(10%,10%,16%)" x1="3182.616139746323" x2="-1344.3991029263486" y1="3182.616139746323" y2="-1344.3991029263486" /><line stroke="rgb(10%,10%,16%)" x1="-1344.3991029263486" x2="400" y1="-1344.3991029263486" y2="400" /></svg>