<?xml version="1.0" encoding="utf-8" ?>
<svg baseProfile="full" height="100%" version="1.1" width="100%" xmlns="http://www.w3.org/2000/svg" xmlns:ev="http://www.w3.org/2001/xml-events" xmlns:xlink="http://www.w3.org/1999/xlink"><defs /><line x1="0" x2="400" y1="0" y2="400" /><line x1="400" x2="400" y1="400" y2="0" /><line x1="400" x2="0" y1="0" y2="0" /><line x1="400" x2="0" y1="400" y2="0" /><line x1="0" x2="0" y1="0" y2="0" /><line x1="0" x2="400" y1="0" y2="400" /><line x1="0" x2="400" y1="0" y2="400" /><line x1="400" x2="770.4474012546316" y1="400" y2="770.4474012546316" /><line x1="770.4474012546316" x2="0" y1="770.4474012546316" y2="0" /><line x1="400" x2="0" y1="400" y2="0" /><line x1="0" x2="0.0" y1="0" y2="0.0" /><line x1="0.0" x2="400" y1="0.0" y2="400" /><line x1="0" x2="400" y1="0" y2="400" /><line x1="400" x2="800.0" y1="400" y2="800.0" /><line x1="800.0" x2="0" y1="800.0" y2="0" /><line x1="400" x2="0" y1="400" y2="0" /><line x1="0" x2="-800.0" y1="0" y2="-800.0" /><line x1="-800.0" x2="400" y1="-800.0" y2="400" /><line x1="400" x2="800.0" y1="400" y2="800.0" /><line x1="800.0" x2="-800.0" y1="800.0" y2="-800.0" /><line x1="-800.0" x2="400" y1="-800.0" y2="400" /><line x1="0" x2="0.0" y1="0" y2="0.0" /><line x1="0.0" x2="800.0" y1="0.0" y2="800.0" /><line x1="800.0" x2="0" y1="800.0" y2="0" /><line x1="0" x2="0.0" y1="0" y2="0.0" /><line x1="0.0" x2="-800.0" y1="0.0" y2="-800.0" /><line x1="-800.0" x2="0" y1="-800.0" y2="0" /><line x1="0" x2="800.0" y1="0" y2="800.0" /><line x1="800.0" x2="-800.0" y1="800.0" y2="-800.0" /><line x1="-800.0" x2="0" y1="-800.0" y2="0" /><line x1="400" x2="770.4474012546316" y1="400" y2="770.4474012546316" /><line x1="770.4474012546316" x2="0.0" y1="770.4474012546316" y2="0.0" /><line x1="0.0" x2="400" y1="0.0" y2="400" /><line x1="400" x2="770.4474012546316" y1="400" y2="770.4474012546316" /><line x1="770.4474012546316" x2="1457.390241383799" y1="770.4474012546316" y2="1457.390241383799" /><line x1="1457.390241383799" x2="400" y1="1457.390241383799" y2="400" /><line x1="770.4474012546316" x2="400" y1="770.4474012546316" y2="400" /><line x1="400" x2="-545.7619797463467" y1="400" y2="-545.7619797463467" /><line x1="-545.7619797463467" x2="770.4474012546316" y1="-545.7619797463467" y2="770.4474012546316" /><line x1="770.4474012546316" x2="1457.390241383799" y1="770.4474012546316" y2="1457.390241383799" /><line x1="1457.390241383799" x2="-545.7619797463467" y1="1457.390241383799" y2="-545.7619797463467" /><line x1="-545.7619797463467" x2="770.4474012546316" y1="-545.7619797463467" y2="770.4474012546316" /><line x1="400" x2="0.0" y1="400" y2="0.0" /><line x1="0.0" x2="1457.390241383799" y1="0.0" y2="1457.390241383799" /><line x1="1457.390241383799" x2="400" y1="1457.390241383799" y2="400" /><line x1="400" x2="1457.390241383799" y1="400" y2="1457.390241383799" /><line x1="1457.390241383799" x2="-590.6889069200223" y1="1457.390241383799" y2="-590.6889069200223" /><line x1="-590.6889069200223" x2="400" y1="-590.6889069200223" y2="400" /><line x1="0" x2="0" y1="0" y2="0" /><line x1="0" x2="770.4474012546316" y1="0" y2="770.4474012546316" /><line x1="770.4474012546316" x2="0" y1="770.4474012546316" y2="0" /><line x1="0" x2="0" y1="0" y2="0" /><line x1="0" x2="0.0" y1="0" y2="0.0" /><line x1="0.0" x2="0" y1="0.0" y2="0" /><line x1="0" x2="0" y1="0" y2="0" /><line x1="0" x2="0.0" y1="0" y2="0.0" /><line x1="0.0" x2="0" y1="0.0" y2="0" /><line x1="0" x2="0" y1="0" y2="0" /><line x1="0" x2="0.0" y1="0" y2="0.0" /><line x1="0.0" x2="0" y1="0.0" y2="0" /><line x1="0" x2="0.0" y1="0" y2="0.0" /><line x1="0.0" x2="0.0" y1="0.0" y2="0.0" /><line x1="0.0" x2="0" y1="0.0" y2="0" /><line x1="0" x2="0.0" y1="0" y2="0.0" /><line x1="0.0" x2="0.0" y1="0.0" y2="0.0" /><line x1="0.0" x2="0" y1="0.0" y2="0" /><line x1="0" x2="0.0" y1="0" y2="0.0" /><line x1="0.0" x2="0.0" y1="0.0" y2="0.0" /><line x1="0.0" x2="0" y1="0.0" y2="0" /><line x1="0" x2="0.0" y1="0" y2="0.0" /><line x1="0.0" x2="0.0" y1="0.0" y2="0.0" /><line x1="0.0" x2="0" y1="0.0" y2="0" /><line x1="0" x2="770.4474012546316" y1="0" y2="770.4474012546316" /><line x1="770.4474012546316" x2="0.0" y1="770.4474012546316" y2="0.0" /><line x1="0.0" x2="0" y1="0.0" y2="0" /><line x1="0" x2="770.4474012546316" y1="0" y2="770.4474012546316" /><line x1="770.4474012546316" x2="770.4474012546316" y1="770.4474012546316" y2="770.4474012546316" /><line x1="770.4474012546316" x2="0" y1="770.4474012546316" y2="0" /><line x1="770.4474012546316" x2="0" y1="770.4474012546316" y2="0" /><line x1="0" x2="0.0" y1="0" y2="0.0" /><line x1="0.0" x2="770.4474012546316" y1="0.0" y2="770.4474012546316" /><line x1="770.4474012546316" x2="770.4474012546316" y1="770.4474012546316" y2="770.4474012546316" /><line x1="770.4474012546316" x2="0.0" y1="770.4474012546316" y2="0.0" /><line x1="0.0" x2="770.4474012546316" y1="0.0" y2="770.4474012546316" /><line x1="0" x2="0.0" y1="0" y2="0.0" /><line x1="0.0" x2="770.4474012546316" y1="0.0" y2="770.4474012546316" /><line x1="770.4474012546316" x2="0" y1="770.4474012546316" y2="0" /><line x1="0" x2="770.4474012546316" y1="0" y2="770.4474012546316" /><line x1="770.4474012546316" x2="0.0" y1="770.4474012546316" y2="0.0" /><line x1="0.0" x2="0" y1="0.0" y2="0" /><line x1="400" x2="400" y1="400" y2="400" /><line x1="400" x2="0" y1="400" y2="0" /><line x1="0" x2="400" y1="0" y2="400" /><line x1="400" x2="400" y1="400" y2="400" /><line x1="400" x2="622.3734183416022" y1="400" y2="622.3734183416022" /><line x1="622.3734183416022" x2="400" y1="622.3734183416022" y2="400" /><line x1="400" x2="400" y1="400" y2="400" /><line x1="400" x2="400.0" y1="400" y2="400.0" /><line x1="400.0" x2="400" y1="400.0" y2="400" /><line x1="400" x2="400" y1="400" y2="400" /><line x1="400" x2="400.0" y1="400" y2="400.0" /><line x1="400.0" x2="400" y1="400.0" y2="400" /><line x1="400" x2="400" y1="400" y2="400" /><line x1="400" x2="400.0" y1="400" y2="400.0" /><line x1="400.0" x2="400" y1="400.0" y2="400" /><line x1="400" x2="400.0" y1="400" y2="400.0" /><line x1="400.0" x2="400.0" y1="400.0" y2="400.0" /><line x1="400.0" x2="400" y1="400.0" y2="400" /><line x1="400" x2="400.0" y1="400" y2="400.0" /><line x1="400.0" x2="400.0" y1="400.0" y2="400.0" /><line x1="400.0" x2="400" y1="400.0" y2="400" /><line x1="400" x2="400.0" y1="400" y2="400.0" /><line x1="400.0" x2="400.0" y1="400.0" y2="400.0" /><line x1="400.0" x2="400" y1="400.0" y2="400" /><line x1="400" x2="400.0" y1="400" y2="400.0" /><line x1="400.0" x2="400.0" y1="400.0" y2="400.0" /><line x1="400.0" x2="400" y1="400.0" y2="400" /><line x1="400" x2="622.3734183416022" y1="400" y2="622.3734183416022" /><line x1="622.3734183416022" x2="400.0" y1="622.3734183416022" y2="400.0" /><line x1="400.0" x2="400" y1="400.0" y2="400" /><line x1="400" x2="622.3734183416022" y1="400" y2="622.3734183416022" /><line x1="622.3734183416022" x2="844.7468366832045" y1="622.3734183416022" y2="844.7468366832045" /><line x1="844.7468366832045" x2="400" y1="844.7468366832045" y2="400" /><line x1="622.3734183416022" x2="400" y1="622.3734183416022" y2="400" /><line x1="400" x2="400.0" y1="400" y2="400.0" /><line x1="400.0" x2="622.3734183416022" y1="400.0" y2="622.3734183416022" /><line x1="622.3734183416022" x2="844.7468366832045" y1="622.3734183416022" y2="844.7468366832045" /><line x1="844.7468366832045" x2="400.0" y1="844.7468366832045" y2="400.0" /><line x1="400.0" x2="622.3734183416022" y1="400.0" y2="622.3734183416022" /><line x1="400" x2="400.0" y1="400" y2="400.0" /><line x1="400.0" x2="844.7468366832045" y1="400.0" y2="844.7468366832045" /><line x1="844.7468366832045" x2="400" y1="844.7468366832045" y2="400" /><line x1="400" x2="400.0" y1="400" y2="400.0" /><line x1="400.0" x2="-35.867144201206145" y1="400.0" y2="-35.867144201206145" /><line x1="-35.867144201206145" x2="400" y1="-35.867144201206145" y2="400" /><line x1="400" x2="0" y1="400" y2="0" /><line x1="0" x2="622.3734183416022" y1="0" y2="622.3734183416022" /><line x1="622.3734183416022" x2="400" y1="622.3734183416022" y2="400" /><line x1="400" x2="0" y1="400" y2="0" /><line x1="0" x2="0.0" y1="0" y2="0.0" /><line x1="0.0" x2="400" y1="0.0" y2="400" /><line x1="0" x2="400" y1="0" y2="400" /><line x1="400" x2="643.8288985094957" y1="400" y2="643.8288985094957" /><line x1="643.8288985094957" x2="0" y1="643.8288985094957" y2="0" /><line x1="400" x2="0" y1="400" y2="0" /><line x1="0" x2="-643.8288985094957" y1="0" y2="-643.8288985094957" /><line x1="-643.8288985094957" x2="400" y1="-643.8288985094957" y2="400" /><line x1="400" x2="643.8288985094957" y1="400" y2="643.8288985094957" /><line x1="643.8288985094957" x2="-643.8288985094957" y1="643.8288985094957" y2="-643.8288985094957" /><line x1="-643.8288985094957" x2="400" y1="-643.8288985094957" y2="400" /><line x1="0" x2="0.0" y1="0" y2="0.0" /><line x1="0.0" x2="643.8288985094957" y1="0.0" y2="643.8288985094957" /><line x1="643.8288985094957" x2="0" y1="643.8288985094957" y2="0" /><line x1="0" x2="0.0" y1="0" y2="0.0" /><line x1="0.0" x2="0.0" y1="0.0" y2="0.0" /><line x1="0.0" x2="0" y1="0.0" y2="0" /><line x1="0" x2="643.8288985094957" y1="0" y2="643.8288985094957" /><line x1="643.8288985094957" x2="0.0" y1="643.8288985094957" y2="0.0" /><line x1="0.0" x2="0" y1="0.0" y2="0" /><line x1="400" x2="622.3734183416022" y1="400" y2="622.3734183416022" /><line x1="622.3734183416022" x2="0.0" y1="622.3734183416022" y2="0.0" /><line x1="0.0" x2="400" y1="0.0" y2="400" /><line x1="400" x2="622.3734183416022" y1="400" y2="622.3734183416022" /><line x1="622.3734183416022" x2="622.3734183416022" y1="622.3734183416022" y2="622.3734183416022" /><line x1="622.3734183416022" x2="400" y1="622.3734183416022" y2="400" /><line x1="622.3734183416022" x2="400" y1="622.3734183416022" y2="400" /><line x1="400" x2="400.0" y1="400" y2="400.0" /><line x1="400.0" x2="622.3734183416022" y1="400.0" y2="622.3734183416022" /><line x1="622.3734183416022" x2="622.3734183416022" y1="622.3734183416022" y2="622.3734183416022" /><line x1="622.3734183416022" x2="400.0" y1="622.3734183416022" y2="400.0" /><line x1="400.0" x2="622.3734183416022" y1="400.0" y2="622.3734183416022" /></svg>